<svg xmlns="http://www.w3.org/2000/svg" version="1.1" xmlns:xlink="http://www.w3.org/1999/xlink" xmlns:svgjs="http://svgjs.dev/svgjs" viewBox="0 0 1422 800"><g><circle r="67.5" cx="0" cy="0" fill="hsl(224, 64%, 45%)"></circle><circle r="67.5" cx="0" cy="135" fill="hsl(216, 64%, 45%)"></circle><circle r="67.5" cx="0" cy="270" fill="hsl(201, 64%, 45%)"></circle><circle r="67.5" cx="0" cy="405" fill="hsl(194, 64%, 45%)"></circle><circle r="67.5" cx="0" cy="540" fill="hsl(181, 64%, 45%)"></circle><circle r="67.5" cx="0" cy="675" fill="hsl(174, 64%, 45%)"></circle><circle r="67.5" cx="0" cy="810" fill="hsl(163, 64%, 45%)"></circle><circle r="67.5" cx="135" cy="0" fill="hsl(231, 64%, 45%)"></circle><circle r="67.5" cx="135" cy="135" fill="hsl(224, 64%, 45%)"></circle><circle r="67.5" cx="135" cy="270" fill="hsl(209, 64%, 45%)"></circle><circle r="67.5" cx="135" cy="405" fill="hsl(202, 64%, 45%)"></circle><circle r="67.5" cx="135" cy="540" fill="hsl(188, 64%, 45%)"></circle><circle r="67.5" cx="135" cy="675" fill="hsl(181, 64%, 45%)"></circle><circle r="67.5" cx="135" cy="810" fill="hsl(170, 64%, 45%)"></circle><circle r="67.5" cx="270" cy="0" fill="hsl(246, 64%, 45%)"></circle><circle r="67.5" cx="270" cy="135" fill="hsl(238, 64%, 45%)"></circle><circle r="67.5" cx="270" cy="270" fill="hsl(224, 64%, 45%)"></circle><circle r="67.5" cx="270" cy="405" fill="hsl(216, 64%, 45%)"></circle><circle r="67.5" cx="270" cy="540" fill="hsl(202, 64%, 45%)"></circle><circle r="67.5" cx="270" cy="675" fill="hsl(196, 64%, 45%)"></circle><circle r="67.5" cx="270" cy="810" fill="hsl(184, 64%, 45%)"></circle><circle r="67.5" cx="405" cy="0" fill="hsl(253, 64%, 45%)"></circle><circle r="67.5" cx="405" cy="135" fill="hsl(245, 64%, 45%)"></circle><circle r="67.5" cx="405" cy="270" fill="hsl(231, 64%, 45%)"></circle><circle r="67.5" cx="405" cy="405" fill="hsl(224, 64%, 45%)"></circle><circle r="67.5" cx="405" cy="540" fill="hsl(210, 64%, 45%)"></circle><circle r="67.5" cx="405" cy="675" fill="hsl(203, 64%, 45%)"></circle><circle r="67.5" cx="405" cy="810" fill="hsl(190, 64%, 45%)"></circle><circle r="67.5" cx="540" cy="0" fill="hsl(266, 64%, 45%)"></circle><circle r="67.5" cx="540" cy="135" fill="hsl(259, 64%, 45%)"></circle><circle r="67.5" cx="540" cy="270" fill="hsl(245, 64%, 45%)"></circle><circle r="67.5" cx="540" cy="405" fill="hsl(237, 64%, 45%)"></circle><circle r="67.5" cx="540" cy="540" fill="hsl(224, 64%, 45%)"></circle><circle r="67.5" cx="540" cy="675" fill="hsl(217, 64%, 45%)"></circle><circle r="67.5" cx="540" cy="810" fill="hsl(204, 64%, 45%)"></circle><circle r="67.5" cx="675" cy="0" fill="hsl(273, 64%, 45%)"></circle><circle r="67.5" cx="675" cy="135" fill="hsl(266, 64%, 45%)"></circle><circle r="67.5" cx="675" cy="270" fill="hsl(251, 64%, 45%)"></circle><circle r="67.5" cx="675" cy="405" fill="hsl(244, 64%, 45%)"></circle><circle r="67.5" cx="675" cy="540" fill="hsl(230, 64%, 45%)"></circle><circle r="67.5" cx="675" cy="675" fill="hsl(224, 64%, 45%)"></circle><circle r="67.5" cx="675" cy="810" fill="hsl(211, 64%, 45%)"></circle><circle r="67.5" cx="810" cy="0" fill="hsl(284, 64%, 45%)"></circle><circle r="67.5" cx="810" cy="135" fill="hsl(277, 64%, 45%)"></circle><circle r="67.5" cx="810" cy="270" fill="hsl(263, 64%, 45%)"></circle><circle r="67.5" cx="810" cy="405" fill="hsl(257, 64%, 45%)"></circle><circle r="67.5" cx="810" cy="540" fill="hsl(243, 64%, 45%)"></circle><circle r="67.5" cx="810" cy="675" fill="hsl(236, 64%, 45%)"></circle><circle r="67.5" cx="810" cy="810" fill="hsl(224, 64%, 45%)"></circle><circle r="67.5" cx="945" cy="0" fill="hsl(289, 64%, 45%)"></circle><circle r="67.5" cx="945" cy="135" fill="hsl(283, 64%, 45%)"></circle><circle r="67.5" cx="945" cy="270" fill="hsl(269, 64%, 45%)"></circle><circle r="67.5" cx="945" cy="405" fill="hsl(262, 64%, 45%)"></circle><circle r="67.5" cx="945" cy="540" fill="hsl(249, 64%, 45%)"></circle><circle r="67.5" cx="945" cy="675" fill="hsl(242, 64%, 45%)"></circle><circle r="67.5" cx="945" cy="810" fill="hsl(230, 64%, 45%)"></circle><circle r="67.5" cx="1080" cy="0" fill="hsl(298, 64%, 45%)"></circle><circle r="67.5" cx="1080" cy="135" fill="hsl(292, 64%, 45%)"></circle><circle r="67.5" cx="1080" cy="270" fill="hsl(279, 64%, 45%)"></circle><circle r="67.5" cx="1080" cy="405" fill="hsl(272, 64%, 45%)"></circle><circle r="67.5" cx="1080" cy="540" fill="hsl(259, 64%, 45%)"></circle><circle r="67.5" cx="1080" cy="675" fill="hsl(253, 64%, 45%)"></circle><circle r="67.5" cx="1080" cy="810" fill="hsl(241, 64%, 45%)"></circle><circle r="67.5" cx="1215" cy="0" fill="hsl(302, 64%, 45%)"></circle><circle r="67.5" cx="1215" cy="135" fill="hsl(296, 64%, 45%)"></circle><circle r="67.5" cx="1215" cy="270" fill="hsl(283, 64%, 45%)"></circle><circle r="67.5" cx="1215" cy="405" fill="hsl(276, 64%, 45%)"></circle><circle r="67.5" cx="1215" cy="540" fill="hsl(264, 64%, 45%)"></circle><circle r="67.5" cx="1215" cy="675" fill="hsl(258, 64%, 45%)"></circle><circle r="67.5" cx="1215" cy="810" fill="hsl(246, 64%, 45%)"></circle><circle r="67.5" cx="1350" cy="0" fill="hsl(308, 64%, 45%)"></circle><circle r="67.5" cx="1350" cy="135" fill="hsl(302, 64%, 45%)"></circle><circle r="67.5" cx="1350" cy="270" fill="hsl(290, 64%, 45%)"></circle><circle r="67.5" cx="1350" cy="405" fill="hsl(284, 64%, 45%)"></circle><circle r="67.5" cx="1350" cy="540" fill="hsl(272, 64%, 45%)"></circle><circle r="67.5" cx="1350" cy="675" fill="hsl(266, 64%, 45%)"></circle><circle r="67.5" cx="1350" cy="810" fill="hsl(255, 64%, 45%)"></circle><circle r="67.5" cx="1485" cy="0" fill="hsl(308, 64%, 45%)"></circle><circle r="67.5" cx="1485" cy="135" fill="hsl(302, 64%, 45%)"></circle><circle r="67.5" cx="1485" cy="270" fill="hsl(290, 64%, 45%)"></circle><circle r="67.5" cx="1485" cy="405" fill="hsl(284, 64%, 45%)"></circle><circle r="67.5" cx="1485" cy="540" fill="hsl(272, 64%, 45%)"></circle><circle r="67.5" cx="1485" cy="675" fill="hsl(266, 64%, 45%)"></circle><circle r="67.5" cx="1485" cy="810" fill="hsl(255, 64%, 45%)"></circle><circle r="67.5" cx="1620" cy="0" fill="hsl(308, 64%, 45%)"></circle><circle r="67.5" cx="1620" cy="135" fill="hsl(302, 64%, 45%)"></circle><circle r="67.5" cx="1620" cy="270" fill="hsl(290, 64%, 45%)"></circle><circle r="67.5" cx="1620" cy="405" fill="hsl(284, 64%, 45%)"></circle><circle r="67.5" cx="1620" cy="540" fill="hsl(272, 64%, 45%)"></circle><circle r="67.5" cx="1620" cy="675" fill="hsl(266, 64%, 45%)"></circle><circle r="67.5" cx="1620" cy="810" fill="hsl(255, 64%, 45%)"></circle><circle r="67.5" cx="1755" cy="0" fill="hsl(308, 64%, 45%)"></circle><circle r="67.5" cx="1755" cy="135" fill="hsl(302, 64%, 45%)"></circle><circle r="67.5" cx="1755" cy="270" fill="hsl(290, 64%, 45%)"></circle><circle r="67.5" cx="1755" cy="405" fill="hsl(284, 64%, 45%)"></circle><circle r="67.5" cx="1755" cy="540" fill="hsl(272, 64%, 45%)"></circle><circle r="67.5" cx="1755" cy="675" fill="hsl(266, 64%, 45%)"></circle><circle r="67.5" cx="1755" cy="810" fill="hsl(255, 64%, 45%)"></circle></g><g transform="matrix(1,0,0,1,-67.5,0)"><circle r="67.5" cx="0" cy="67.5" fill="hsl(224, 64%, 45%)"></circle><circle r="67.5" cx="0" cy="202.5" fill="hsl(209, 64%, 45%)"></circle><circle r="67.5" cx="0" cy="337.5" fill="hsl(201, 64%, 45%)"></circle><circle r="67.5" cx="0" cy="472.5" fill="hsl(187, 64%, 45%)"></circle><circle r="67.5" cx="0" cy="607.5" fill="hsl(181, 64%, 45%)"></circle><circle r="67.5" cx="0" cy="742.5" fill="hsl(168, 64%, 45%)"></circle><circle r="67.5" cx="0" cy="877.5" fill="hsl(163, 64%, 45%)"></circle><circle r="67.5" cx="135" cy="67.5" fill="hsl(231, 64%, 45%)"></circle><circle r="67.5" cx="135" cy="202.5" fill="hsl(216, 64%, 45%)"></circle><circle r="67.5" cx="135" cy="337.5" fill="hsl(209, 64%, 45%)"></circle><circle r="67.5" cx="135" cy="472.5" fill="hsl(195, 64%, 45%)"></circle><circle r="67.5" cx="135" cy="607.5" fill="hsl(188, 64%, 45%)"></circle><circle r="67.5" cx="135" cy="742.5" fill="hsl(175, 64%, 45%)"></circle><circle r="67.5" cx="135" cy="877.5" fill="hsl(170, 64%, 45%)"></circle><circle r="67.5" cx="270" cy="67.5" fill="hsl(246, 64%, 45%)"></circle><circle r="67.5" cx="270" cy="202.5" fill="hsl(231, 64%, 45%)"></circle><circle r="67.5" cx="270" cy="337.5" fill="hsl(224, 64%, 45%)"></circle><circle r="67.5" cx="270" cy="472.5" fill="hsl(209, 64%, 45%)"></circle><circle r="67.5" cx="270" cy="607.5" fill="hsl(202, 64%, 45%)"></circle><circle r="67.5" cx="270" cy="742.5" fill="hsl(189, 64%, 45%)"></circle><circle r="67.5" cx="270" cy="877.5" fill="hsl(184, 64%, 45%)"></circle><circle r="67.5" cx="405" cy="67.5" fill="hsl(253, 64%, 45%)"></circle><circle r="67.5" cx="405" cy="202.5" fill="hsl(238, 64%, 45%)"></circle><circle r="67.5" cx="405" cy="337.5" fill="hsl(231, 64%, 45%)"></circle><circle r="67.5" cx="405" cy="472.5" fill="hsl(216, 64%, 45%)"></circle><circle r="67.5" cx="405" cy="607.5" fill="hsl(210, 64%, 45%)"></circle><circle r="67.5" cx="405" cy="742.5" fill="hsl(197, 64%, 45%)"></circle><circle r="67.5" cx="405" cy="877.5" fill="hsl(190, 64%, 45%)"></circle><circle r="67.5" cx="540" cy="67.5" fill="hsl(266, 64%, 45%)"></circle><circle r="67.5" cx="540" cy="202.5" fill="hsl(252, 64%, 45%)"></circle><circle r="67.5" cx="540" cy="337.5" fill="hsl(245, 64%, 45%)"></circle><circle r="67.5" cx="540" cy="472.5" fill="hsl(230, 64%, 45%)"></circle><circle r="67.5" cx="540" cy="607.5" fill="hsl(224, 64%, 45%)"></circle><circle r="67.5" cx="540" cy="742.5" fill="hsl(210, 64%, 45%)"></circle><circle r="67.5" cx="540" cy="877.5" fill="hsl(204, 64%, 45%)"></circle><circle r="67.5" cx="675" cy="67.5" fill="hsl(273, 64%, 45%)"></circle><circle r="67.5" cx="675" cy="202.5" fill="hsl(258, 64%, 45%)"></circle><circle r="67.5" cx="675" cy="337.5" fill="hsl(251, 64%, 45%)"></circle><circle r="67.5" cx="675" cy="472.5" fill="hsl(237, 64%, 45%)"></circle><circle r="67.5" cx="675" cy="607.5" fill="hsl(230, 64%, 45%)"></circle><circle r="67.5" cx="675" cy="742.5" fill="hsl(217, 64%, 45%)"></circle><circle r="67.5" cx="675" cy="877.5" fill="hsl(211, 64%, 45%)"></circle><circle r="67.5" cx="810" cy="67.5" fill="hsl(284, 64%, 45%)"></circle><circle r="67.5" cx="810" cy="202.5" fill="hsl(270, 64%, 45%)"></circle><circle r="67.5" cx="810" cy="337.5" fill="hsl(263, 64%, 45%)"></circle><circle r="67.5" cx="810" cy="472.5" fill="hsl(250, 64%, 45%)"></circle><circle r="67.5" cx="810" cy="607.5" fill="hsl(243, 64%, 45%)"></circle><circle r="67.5" cx="810" cy="742.5" fill="hsl(230, 64%, 45%)"></circle><circle r="67.5" cx="810" cy="877.5" fill="hsl(224, 64%, 45%)"></circle><circle r="67.5" cx="945" cy="67.5" fill="hsl(289, 64%, 45%)"></circle><circle r="67.5" cx="945" cy="202.5" fill="hsl(276, 64%, 45%)"></circle><circle r="67.5" cx="945" cy="337.5" fill="hsl(269, 64%, 45%)"></circle><circle r="67.5" cx="945" cy="472.5" fill="hsl(255, 64%, 45%)"></circle><circle r="67.5" cx="945" cy="607.5" fill="hsl(249, 64%, 45%)"></circle><circle r="67.5" cx="945" cy="742.5" fill="hsl(236, 64%, 45%)"></circle><circle r="67.5" cx="945" cy="877.5" fill="hsl(230, 64%, 45%)"></circle><circle r="67.5" cx="1080" cy="67.5" fill="hsl(298, 64%, 45%)"></circle><circle r="67.5" cx="1080" cy="202.5" fill="hsl(285, 64%, 45%)"></circle><circle r="67.5" cx="1080" cy="337.5" fill="hsl(279, 64%, 45%)"></circle><circle r="67.5" cx="1080" cy="472.5" fill="hsl(266, 64%, 45%)"></circle><circle r="67.5" cx="1080" cy="607.5" fill="hsl(259, 64%, 45%)"></circle><circle r="67.5" cx="1080" cy="742.5" fill="hsl(247, 64%, 45%)"></circle><circle r="67.5" cx="1080" cy="877.5" fill="hsl(241, 64%, 45%)"></circle><circle r="67.5" cx="1215" cy="67.5" fill="hsl(302, 64%, 45%)"></circle><circle r="67.5" cx="1215" cy="202.5" fill="hsl(289, 64%, 45%)"></circle><circle r="67.5" cx="1215" cy="337.5" fill="hsl(283, 64%, 45%)"></circle><circle r="67.5" cx="1215" cy="472.5" fill="hsl(270, 64%, 45%)"></circle><circle r="67.5" cx="1215" cy="607.5" fill="hsl(264, 64%, 45%)"></circle><circle r="67.5" cx="1215" cy="742.5" fill="hsl(251, 64%, 45%)"></circle><circle r="67.5" cx="1215" cy="877.5" fill="hsl(246, 64%, 45%)"></circle><circle r="67.5" cx="1350" cy="67.5" fill="hsl(308, 64%, 45%)"></circle><circle r="67.5" cx="1350" cy="202.5" fill="hsl(296, 64%, 45%)"></circle><circle r="67.5" cx="1350" cy="337.5" fill="hsl(290, 64%, 45%)"></circle><circle r="67.5" cx="1350" cy="472.5" fill="hsl(278, 64%, 45%)"></circle><circle r="67.5" cx="1350" cy="607.5" fill="hsl(272, 64%, 45%)"></circle><circle r="67.5" cx="1350" cy="742.5" fill="hsl(260, 64%, 45%)"></circle><circle r="67.5" cx="1350" cy="877.5" fill="hsl(255, 64%, 45%)"></circle><circle r="67.5" cx="1485" cy="67.5" fill="hsl(308, 64%, 45%)"></circle><circle r="67.5" cx="1485" cy="202.5" fill="hsl(296, 64%, 45%)"></circle><circle r="67.5" cx="1485" cy="337.5" fill="hsl(290, 64%, 45%)"></circle><circle r="67.5" cx="1485" cy="472.5" fill="hsl(278, 64%, 45%)"></circle><circle r="67.5" cx="1485" cy="607.5" fill="hsl(272, 64%, 45%)"></circle><circle r="67.5" cx="1485" cy="742.5" fill="hsl(260, 64%, 45%)"></circle><circle r="67.5" cx="1485" cy="877.5" fill="hsl(255, 64%, 45%)"></circle><circle r="67.5" cx="1620" cy="67.5" fill="hsl(308, 64%, 45%)"></circle><circle r="67.5" cx="1620" cy="202.5" fill="hsl(296, 64%, 45%)"></circle><circle r="67.5" cx="1620" cy="337.5" fill="hsl(290, 64%, 45%)"></circle><circle r="67.5" cx="1620" cy="472.5" fill="hsl(278, 64%, 45%)"></circle><circle r="67.5" cx="1620" cy="607.5" fill="hsl(272, 64%, 45%)"></circle><circle r="67.5" cx="1620" cy="742.5" fill="hsl(260, 64%, 45%)"></circle><circle r="67.5" cx="1620" cy="877.5" fill="hsl(255, 64%, 45%)"></circle><circle r="67.5" cx="1755" cy="67.5" fill="hsl(308, 64%, 45%)"></circle><circle r="67.5" cx="1755" cy="202.5" fill="hsl(296, 64%, 45%)"></circle><circle r="67.5" cx="1755" cy="337.5" fill="hsl(290, 64%, 45%)"></circle><circle r="67.5" cx="1755" cy="472.5" fill="hsl(278, 64%, 45%)"></circle><circle r="67.5" cx="1755" cy="607.5" fill="hsl(272, 64%, 45%)"></circle><circle r="67.5" cx="1755" cy="742.5" fill="hsl(260, 64%, 45%)"></circle><circle r="67.5" cx="1755" cy="877.5" fill="hsl(255, 64%, 45%)"></circle></g></svg>